Coordinates
version=1
nRows=30
nColumns=33
inDegrees=yes

Units are S.I. units (second, meters, Newtons, ...)
Angles are in degrees.

endheader
time	ground_thorax_rot_x	ground_thorax_rot_y	ground_thorax_rot_z	ground_thorax_tx	ground_thorax_ty	ground_thorax_tz	clav_prot_r	clav_elev_r	scapula_abduction_r	scapula_elevation_r	scapula_upward_rot_r	scapula_winging_r	shoulder_elv_r	plane_of_elev_r	axial_rot_r	elbow_flexion_r	pro_sup_r	wrist_flex_r	wrist_dev_r	clav_prot_l	clav_elev_l	scapula_abduction_l	scapula_elevation_l	scapula_upward_rot_l	scapula_winging_l	shoulder_elv_l	plane_of_elev_l	axial_rot_l	elbow_flexion_l	pro_sup_l	wrist_flex_l	wrist_dev_l	
1.6300	22.464980	36.243125	5.444855	0.018440	1.009514	-0.045169	-20.228577	32.427219	-21.019155	23.265164	45.000000	-10.985913	1.274814	-90.000000	24.902493	71.216234	5.891062	41.028830	-19.116329	17.452849	-4.996907	-45.000000	0.492967	10.238738	21.199315	15.907646	-56.321176	-27.996706	63.983364	33.217252	-0.981076	-24.999999	
1.6400	22.459034	36.197446	5.461865	0.018446	1.009420	-0.045054	-20.226617	32.348944	-20.900302	23.196937	45.000000	-11.012757	1.225306	-90.000000	24.952045	71.373562	5.817254	41.118234	-19.272479	17.479082	-5.171303	-45.000000	0.609383	10.163364	21.136716	16.076023	-56.282896	-28.112981	63.921669	33.119425	-1.110818	-24.999998	
1.6500	22.461778	36.174747	5.467523	0.018444	1.009345	-0.044973	-20.234024	32.266987	-20.796441	23.124287	45.000000	-11.044377	1.177503	-89.999999	24.999908	71.523513	5.709562	41.221745	-19.477642	17.511485	-5.368386	-45.000000	0.738359	10.068567	21.065184	16.281036	-56.235575	-28.265311	63.902938	32.979386	-1.278889	-24.999997	
1.6600	22.475203	36.151321	5.451968	0.018466	1.009312	-0.044847	-20.248836	32.169726	-20.686505	23.037260	45.000000	-11.084032	1.121774	-89.999999	25.055723	71.702310	5.550035	41.355858	-19.752368	17.554377	-5.610411	-45.000000	0.893824	9.940945	20.978039	16.569970	-56.182438	-28.485093	63.899633	32.775255	-1.489057	-24.999995	
1.6700	22.490102	36.139805	5.429982	0.018495	1.009295	-0.044731	-20.268537	32.068902	-20.582497	22.946504	45.000000	-11.126644	1.068939	-89.999998	25.108659	71.902615	5.362452	41.496660	-20.041732	17.598481	-5.856605	-45.000000	1.051641	9.809715	20.888759	16.890747	-56.118301	-28.742813	63.919651	32.534951	-1.690188	-24.999991	
1.6800	22.504426	36.138035	5.402820	0.018533	1.009293	-0.044619	-20.292981	31.964037	-20.483543	22.851637	45.000000	-11.172251	1.022608	-89.999996	25.155108	72.133886	5.148830	41.639403	-20.338732	17.642778	-6.102764	-45.000000	1.209397	9.678141	20.798714	17.238760	-56.043619	-29.030416	63.962834	32.260862	-1.873593	-24.999984	
1.6900	22.514628	36.145057	5.374424	0.018571	1.009283	-0.044524	-20.319309	31.860527	-20.391639	22.757803	45.000000	-11.217765	0.991505	-89.999992	25.186337	72.404282	4.923461	41.754667	-20.600751	17.680593	-6.324363	-45.000000	1.353656	9.567743	20.715946	17.577690	-55.955595	-29.315199	64.029440	31.971081	-1.991944	-24.999972	
1.7000	22.520432	36.162872	5.347770	0.018608	1.009269	-0.044449	-20.346891	31.759833	-20.307354	22.666365	45.000000	-11.262662	0.979266	-89.999986	25.198725	72.708737	4.686314	41.840498	-20.828423	17.713117	-6.522955	-45.000000	1.484452	9.474231	20.640248	17.906000	-55.853834	-29.591399	64.121847	31.664217	-2.051307	-24.999950	
1.7100	22.522883	36.184773	5.326592	0.018642	1.009234	-0.044389	-20.371048	31.667185	-20.228074	22.582483	45.000000	-11.303404	0.990435	-89.999976	25.187743	73.056377	4.440618	41.884796	-21.005920	17.741488	-6.694750	-45.000000	1.597419	9.392656	20.573930	18.213417	-55.737336	-29.840372	64.242749	31.338031	-2.043626	-24.999911	
1.7200	22.521736	36.212837	5.318525	0.018674	1.009202	-0.044336	-20.389903	31.583605	-20.150745	22.507265	45.000000	-11.339218	1.022890	-89.999956	25.155554	73.433003	4.186048	41.898442	-21.146957	17.771051	-6.854204	-45.000000	1.699005	9.305004	20.512869	18.509532	-55.606070	-30.063441	64.386481	30.987716	-2.002163	-24.999840	
1.7300	22.526628	36.252860	5.318750	0.018697	1.009166	-0.044267	-20.405436	31.513464	-20.085616	22.444223	45.000000	-11.369091	1.077694	-89.999922	25.101171	73.857699	3.866619	41.856822	-21.246336	17.814461	-7.024102	-45.000000	1.795089	9.167542	20.450837	18.847422	-55.438797	-30.298685	64.569778	30.524110	-1.898050	-24.999713	
1.7400	22.530698	36.310015	5.335577	0.018710	1.009148	-0.044195	-20.417489	31.455206	-20.030011	22.392025	45.000000	-11.393589	1.156001	-89.999860	25.023549	74.310059	3.502874	41.766378	-21.292679	17.868721	-7.196050	-45.000000	1.881797	8.990293	20.390789	19.210027	-55.234798	-30.537742	64.772689	29.978653	-1.741956	-24.999487	
1.7500	22.534920	36.383032	5.363901	0.018710	1.009143	-0.044125	-20.425229	31.407544	-19.980468	22.349606	45.000000	-11.412752	1.259550	-89.999749	24.921141	74.793794	3.094133	41.614911	-21.278879	17.932567	-7.367658	-45.000000	1.958381	8.777458	20.333373	19.596383	-54.992385	-30.775061	64.995883	29.357674	-1.528939	-24.999081	
1.7600	22.537791	36.464928	5.386738	0.018696	1.009156	-0.044074	-20.431154	31.357118	-19.923835	22.305073	45.000000	-11.431914	1.396750	-89.999551	24.785873	75.306733	2.683366	41.385016	-21.183704	17.992895	-7.518349	-45.000000	2.021151	8.574549	20.283955	19.956922	-54.712660	-30.963436	65.217630	28.746472	-1.265360	-24.998353	
1.7700	22.543987	36.554050	5.401137	0.018664	1.009166	-0.044034	-20.433201	31.308028	-19.861247	22.262173	45.000000	-11.449033	1.566192	-89.999196	24.619773	75.872491	2.222322	41.033381	-20.995079	18.058090	-7.661404	-45.000000	2.072236	8.351649	20.239498	20.332240	-54.387514	-31.128174	65.462453	28.089007	-0.919263	-24.997050	
1.7800	22.544215	36.645636	5.409516	0.018618	1.009172	-0.044030	-20.430139	31.253282	-19.780576	22.215050	45.000000	-11.466169	1.770401	-89.998559	24.421374	76.468876	1.763357	40.581109	-20.711836	18.115194	-7.771111	-45.000000	2.103558	8.153000	20.207691	20.668990	-54.032604	-31.233638	65.715065	27.477203	-0.518342	-24.994717	
1.7900	22.534130	36.742534	5.427554	0.018560	1.009163	-0.044069	-20.415319	31.202699	-19.681316	22.173063	45.000000	-11.477836	2.001523	-89.997419	24.200444	77.095038	1.277467	40.007650	-20.314239	18.170658	-7.849561	-45.000000	2.110038	7.954462	20.189583	20.987974	-53.644187	-31.299106	65.985306	26.879412	-0.041046	-24.990534	
1.8000	22.516164	36.845725	5.435064	0.018492	1.009153	-0.044151	-20.397637	31.137770	-19.557255	22.119082	45.000000	-11.493218	2.261077	-89.995375	23.958891	77.740232	0.763240	39.329912	-19.820154	18.221025	-7.900119	-45.000000	2.098079	7.769538	20.182632	21.291096	-53.214816	-31.328499	66.263635	26.314422	0.495316	-24.983049	
1.8100	22.486819	36.967032	5.456736	0.018417	1.009158	-0.044272	-20.371671	31.069984	-19.412855	22.063751	45.000000	-11.506621	2.535340	-89.991718	23.716452	78.382575	0.185490	38.562463	-19.245204	18.277257	-7.943077	-45.000000	2.073275	7.560545	20.180977	21.617479	-52.744398	-31.363658	66.554114	25.726071	1.094912	-24.969622	
1.8200	22.443189	37.100212	5.476712	0.018342	1.009180	-0.044432	-20.345497	30.979707	-19.238946	21.989102	45.000000	-11.527233	2.831687	-89.985158	23.476788	79.017589	-0.448839	37.715195	-18.604970	18.332097	-7.968284	-45.000000	2.034562	7.352729	20.187072	21.955362	-52.232580	-31.402670	66.847308	25.166958	1.737591	-24.945626	
1.8300	22.388211	37.250779	5.504541	0.018264	1.009212	-0.044649	-20.313332	30.876137	-19.036311	21.903918	45.000000	-11.549997	3.154410	-89.973434	23.254575	79.631700	-1.153577	36.788600	-17.884098	18.389844	-7.978469	-45.000000	1.979341	7.129459	20.200902	22.307349	-51.667732	-31.452021	67.144560	24.632365	2.436701	-24.902484	
1.8400	22.329099	37.416186	5.520204	0.018181	1.009247	-0.044905	-20.285055	30.746121	-18.808810	21.795745	45.000000	-11.582306	3.527308	-89.952356	23.061414	80.243816	-1.971305	35.773157	-17.073501	18.456069	-7.979709	-45.000000	1.906109	6.868885	20.221579	22.697327	-51.017548	-31.522482	67.446024	24.104683	3.213176	-24.825644	
1.8500	22.264347	37.601821	5.535431	0.018101	1.009293	-0.045203	-20.260309	30.590930	-18.559583	21.666116	45.000000	-11.622939	3.971242	-89.914814	22.935565	80.825668	-2.877823	34.725018	-16.208598	18.533875	-7.983528	-45.000000	1.821040	6.560735	20.244607	23.127966	-50.290646	-31.616040	67.755998	23.577153	4.040118	-24.686778	
1.8600	22.193118	37.811287	5.542514	0.018031	1.009357	-0.045537	-20.251689	30.397414	-18.299456	21.502668	45.000000	-11.679647	4.545831	-89.846965	22.933880	81.385692	-3.879226	33.626287	-15.297239	18.624132	-7.990915	-45.000000	1.723386	6.200310	20.269689	23.612323	-49.473296	-31.747907	68.076753	23.050140	4.924678	-24.448014	
1.8700	22.123665	38.052319	5.524576	0.017981	1.009460	-0.045912	-20.273297	30.148477	-18.039190	21.289847	45.000000	-11.761165	5.337549	-89.727104	23.148191	81.904708	-4.933334	32.524771	-14.381492	18.727676	-8.022013	-45.000000	1.628518	5.786516	20.287438	24.155879	-48.563112	-31.910222	68.411519	22.517895	5.833389	-24.087440	
1.8800	22.060133	38.344263	5.476974	0.017967	1.009621	-0.046334	-20.352508	29.826922	-17.817817	21.011294	45.000000	-11.879532	6.542967	-89.507723	23.782456	82.394581	-6.047838	31.402114	-13.470685	18.850128	-8.086318	-45.000000	1.536698	5.295586	20.294882	24.782406	-47.527361	-32.125997	68.751506	21.968151	6.781258	-23.592698	
1.8900	22.007714	38.693605	5.375850	0.018017	1.009881	-0.046812	-20.522713	29.393628	-17.661827	20.631599	45.000000	-12.054602	8.400079	-89.127797	25.086044	82.839918	-7.160326	30.321852	-12.627219	18.990601	-8.204145	-45.000000	1.464268	4.730703	20.281920	25.497215	-46.367252	-32.376060	69.093867	21.414276	7.711337	-22.979785	
1.9000	21.981169	39.144961	5.198005	0.018184	1.010298	-0.047376	-20.879093	28.776787	-17.692431	20.084162	45.000000	-12.331139	11.658108	-88.410818	27.817919	83.313829	-8.299888	29.202535	-11.831006	19.161750	-8.396816	-45.000000	1.412089	4.039311	20.241650	26.361214	-45.008401	-32.710733	69.431685	20.827385	8.682138	-22.256797	
1.9100	21.989675	39.707248	4.902450	0.018506	1.010926	-0.048031	-21.482959	27.919514	-17.976355	19.316968	45.000000	-12.740465	16.764410	-87.228168	32.435611	83.828324	-9.457907	28.079183	-11.094095	19.372121	-8.691899	-45.000000	1.390652	3.185524	20.163979	27.414172	-43.412673	-33.111150	69.764083	20.181882	9.676784	-21.457376	
1.9200	22.079303	40.559981	4.319749	0.019248	1.012191	-0.048926	-22.778580	26.382947	-18.945919	17.927992	45.000000	-13.528533	26.968647	-84.855594	42.248725	84.606537	-10.648750	26.883287	-10.493611	19.656594	-9.222384	-45.000000	1.464233	2.036856	19.992622	28.919904	-41.357870	-33.723402	70.087785	19.440028	10.745130	-20.554782	
